<?xml version="1.0" encoding="UTF-8" standalone="no"?>
<!DOCTYPE svg PUBLIC "-//W3C//DTD SVG 1.1//EN" "http://www.w3.org/Graphics/SVG/1.1/DTD/svg11.dtd">
<svg width="100%" height="100%" viewBox="0 0 100 100" version="1.1" xmlns="http://www.w3.org/2000/svg" xmlns:xlink="http://www.w3.org/1999/xlink" xml:space="preserve" xmlns:serif="http://www.serif.com/" style="fill-rule:evenodd;clip-rule:evenodd;stroke-linejoin:round;stroke-miterlimit:2;">
    <g transform="matrix(1.5625,0,0,1.5625,-776.321,-251.812)">
        <g transform="matrix(-3.2,0,0,3.2,567.246,154.76)">
            <path d="M7.291,20.824L2,22L3.176,16.709C2.425,15.306 2,13.703 2,12C2,6.477 6.477,2 12,2C17.523,2 22,6.477 22,12C22,17.523 17.523,22 12,22C10.298,22 8.694,21.575 7.291,20.824Z" style="fill:rgb(38,87,210);fill-rule:nonzero;"/>
        </g>
        <g transform="matrix(1.48765,-0.130152,0.130152,1.48765,509.425,176.871)">
            <path d="M11.005,21C11.005,20.171 10.333,19.5 9.505,19.5C8.676,19.5 8.005,20.171 8.005,21L3.005,21C2.453,21 2.005,20.552 2.005,20L2.005,4C2.005,3.447 2.453,3 3.005,3L8.005,3C8.005,3.828 8.676,4.5 9.505,4.5C10.333,4.5 11.005,3.828 11.005,3L21.005,3C21.557,3 22.005,3.447 22.005,4L22.005,9.5C20.624,9.5 19.505,10.619 19.505,12C19.505,13.38 20.624,14.5 22.005,14.5L22.005,20C22.005,20.552 21.557,21 21.005,21L11.005,21ZM9.505,10.5C10.333,10.5 11.005,9.828 11.005,9C11.005,8.171 10.333,7.5 9.505,7.5C8.676,7.5 8.005,8.171 8.005,9C8.005,9.828 8.676,10.5 9.505,10.5ZM9.505,16.5C10.333,16.5 11.005,15.828 11.005,15C11.005,14.171 10.333,13.5 9.505,13.5C8.676,13.5 8.005,14.171 8.005,15C8.005,15.828 8.676,16.5 9.505,16.5Z" style="fill:rgb(235,235,235);fill-rule:nonzero;"/>
        </g>
    </g>
</svg>
