<?xml version="1.0" encoding="UTF-8" standalone="no"?>
<!DOCTYPE svg PUBLIC "-//W3C//DTD SVG 1.1//EN" "http://www.w3.org/Graphics/SVG/1.1/DTD/svg11.dtd">
<svg width="100%" height="100%" viewBox="0 0 554 100" version="1.1" xmlns="http://www.w3.org/2000/svg" xmlns:xlink="http://www.w3.org/1999/xlink" xml:space="preserve" xmlns:serif="http://www.serif.com/" style="fill-rule:evenodd;clip-rule:evenodd;stroke-linejoin:round;stroke-miterlimit:2;">
    <g transform="matrix(1,0,0,1,-296.986,-319.892)">
        <g transform="matrix(1,0,0,1,-379.535,-3.18528)">
            <path d="M811.521,413.023L811.521,331.423L832.521,331.423L832.521,393.943L858.081,393.943L858.081,413.023L811.521,413.023Z" style="fill:rgb(235,235,235);fill-rule:nonzero;"/>
            <path d="M920.241,350.983L920.241,413.023L900.441,413.023L900.441,409.903C898.281,411.423 895.841,412.583 893.121,413.383C890.481,414.263 887.601,414.703 884.481,414.703C879.921,414.703 875.881,413.663 872.361,411.583C868.921,409.503 866.201,406.503 864.201,402.583C862.281,398.663 861.321,394.023 861.321,388.663L861.321,350.983L881.121,350.983L881.121,386.023C881.121,389.223 881.841,391.823 883.281,393.823C884.801,395.743 887.161,396.703 890.361,396.703C893.561,396.703 896.041,395.783 897.801,393.943C899.561,392.103 900.441,389.463 900.441,386.023L900.441,350.983L920.241,350.983Z" style="fill:rgb(235,235,235);fill-rule:nonzero;"/>
            <path d="M927.441,413.023L927.441,350.983L947.241,350.983L947.241,354.103C949.321,352.583 951.641,351.423 954.201,350.623C956.761,349.743 959.401,349.303 962.121,349.303C965.081,349.303 967.801,349.823 970.281,350.863C972.761,351.823 974.881,353.263 976.641,355.183C979.201,353.343 982.081,351.903 985.281,350.863C988.561,349.823 991.921,349.303 995.361,349.303C1000.24,349.303 1004.44,350.303 1007.96,352.303C1011.56,354.303 1014.32,357.143 1016.24,360.823C1018.24,364.503 1019.24,368.943 1019.24,374.143L1019.24,413.023L999.441,413.023L999.441,376.543C999.441,373.823 998.801,371.623 997.521,369.943C996.321,368.183 994.361,367.303 991.641,367.303C989.001,367.303 986.921,368.143 985.401,369.823C983.961,371.423 983.241,373.663 983.241,376.543L983.241,413.023L963.441,413.023L963.441,376.543C963.441,373.823 962.801,371.623 961.521,369.943C960.321,368.183 958.361,367.303 955.641,367.303C953.001,367.303 950.921,368.143 949.401,369.823C947.961,371.423 947.241,373.663 947.241,376.543L947.241,413.023L927.441,413.023Z" style="fill:rgb(235,235,235);fill-rule:nonzero;"/>
            <g transform="matrix(0.984808,-0.173648,0.173648,0.984808,-50.3229,188.6)">
                <path d="M1078.88,410.143C1073.36,412.463 1067.88,413.903 1062.44,414.463C1057,415.023 1051.84,414.703 1046.96,413.503C1042.16,412.383 1037.88,410.423 1034.12,407.623C1030.36,404.823 1027.4,401.263 1025.24,396.943C1023.16,392.623 1022.12,387.623 1022.12,381.943C1022.12,377.223 1022.88,372.903 1024.4,368.983C1026,364.983 1028.24,361.503 1031.12,358.543C1034,355.503 1037.4,353.183 1041.32,351.583C1045.24,349.903 1049.52,349.063 1054.16,349.063C1058.32,349.063 1062.08,349.743 1065.44,351.103C1068.8,352.463 1071.72,354.383 1074.2,356.863C1076.68,359.263 1078.68,362.143 1080.2,365.503C1081.72,368.863 1082.68,372.543 1083.08,376.543C1083.48,380.543 1083.24,384.783 1082.36,389.263L1042.76,389.263C1044.28,392.303 1046.8,394.463 1050.32,395.743C1053.92,397.023 1058.16,397.423 1063.04,396.943C1068,396.463 1073.28,395.183 1078.88,393.103L1078.88,410.143ZM1053.68,366.823C1051.36,366.823 1049.2,367.463 1047.2,368.743C1045.28,370.023 1043.8,371.983 1042.76,374.623L1064.48,374.623C1063.52,371.903 1062.08,369.943 1060.16,368.743C1058.32,367.463 1056.16,366.823 1053.68,366.823Z" style="fill:rgb(235,235,235);fill-rule:nonzero;"/>
            </g>
            <path d="M1093.4,413.023L1093.4,368.743L1083.68,368.743L1083.68,350.983L1093.4,350.983L1093.4,334.423L1113.2,334.423L1113.2,350.983L1124.48,350.983L1124.48,368.743L1113.2,368.743L1113.2,413.023L1093.4,413.023Z" style="fill:rgb(235,235,235);fill-rule:nonzero;"/>
            <path d="M1128.08,413.023L1128.08,350.983L1147.88,350.983L1147.88,354.343C1150.36,352.583 1153.16,351.263 1156.28,350.383C1159.4,349.503 1162.8,349.263 1166.48,349.663L1166.48,369.103C1160.16,368.223 1155.48,368.783 1152.44,370.783C1149.4,372.703 1147.88,375.863 1147.88,380.263L1147.88,413.023L1128.08,413.023Z" style="fill:rgb(235,235,235);fill-rule:nonzero;"/>
            <path d="M1210.28,413.023L1210.28,409.423C1208.28,411.103 1206,412.383 1203.44,413.263C1200.96,414.223 1198.28,414.703 1195.4,414.703C1191.32,414.703 1187.48,413.943 1183.88,412.423C1180.28,410.823 1177.08,408.583 1174.28,405.703C1171.56,402.743 1169.4,399.263 1167.8,395.263C1166.28,391.263 1165.52,386.823 1165.52,381.943C1165.52,376.983 1166.28,372.503 1167.8,368.503C1169.4,364.503 1171.56,361.103 1174.28,358.303C1177.08,355.423 1180.28,353.223 1183.88,351.703C1187.48,350.103 1191.28,349.303 1195.28,349.303C1198.16,349.303 1200.88,349.783 1203.44,350.743C1206,351.623 1208.28,352.863 1210.28,354.463L1210.28,350.983L1230.08,350.983L1230.08,413.023L1210.28,413.023ZM1198.04,397.183C1201.88,397.183 1204.96,395.783 1207.28,392.983C1209.6,390.183 1210.76,386.503 1210.76,381.943C1210.76,377.383 1209.6,373.743 1207.28,371.023C1204.96,368.223 1201.88,366.823 1198.04,366.823C1194.12,366.823 1191,368.183 1188.68,370.903C1186.44,373.623 1185.32,377.303 1185.32,381.943C1185.32,386.583 1186.44,390.303 1188.68,393.103C1191,395.823 1194.12,397.183 1198.04,397.183Z" style="fill:rgb(235,235,235);fill-rule:nonzero;"/>
        </g>
        <g transform="matrix(1.5625,0,0,1.5625,-479.335,68.0793)">
            <g transform="matrix(-3.2,0,0,3.2,567.246,154.76)">
                <path d="M7.291,20.824L2,22L3.176,16.709C2.425,15.306 2,13.703 2,12C2,6.477 6.477,2 12,2C17.523,2 22,6.477 22,12C22,17.523 17.523,22 12,22C10.298,22 8.694,21.575 7.291,20.824Z" style="fill:rgb(38,87,210);fill-rule:nonzero;"/>
            </g>
            <g transform="matrix(1.48765,-0.130152,0.130152,1.48765,509.425,176.871)">
                <path d="M11.005,21C11.005,20.171 10.333,19.5 9.505,19.5C8.676,19.5 8.005,20.171 8.005,21L3.005,21C2.453,21 2.005,20.552 2.005,20L2.005,4C2.005,3.447 2.453,3 3.005,3L8.005,3C8.005,3.828 8.676,4.5 9.505,4.5C10.333,4.5 11.005,3.828 11.005,3L21.005,3C21.557,3 22.005,3.447 22.005,4L22.005,9.5C20.624,9.5 19.505,10.619 19.505,12C19.505,13.38 20.624,14.5 22.005,14.5L22.005,20C22.005,20.552 21.557,21 21.005,21L11.005,21ZM9.505,10.5C10.333,10.5 11.005,9.828 11.005,9C11.005,8.171 10.333,7.5 9.505,7.5C8.676,7.5 8.005,8.171 8.005,9C8.005,9.828 8.676,10.5 9.505,10.5ZM9.505,16.5C10.333,16.5 11.005,15.828 11.005,15C11.005,14.171 10.333,13.5 9.505,13.5C8.676,13.5 8.005,14.171 8.005,15C8.005,15.828 8.676,16.5 9.505,16.5Z" style="fill:rgb(235,235,235);fill-rule:nonzero;"/>
            </g>
        </g>
    </g>
</svg>
